<?xml version="1.0" encoding="utf-8"?>
<!-- Generator: Adobe Illustrator 27.7.0, SVG Export Plug-In . SVG Version: 6.00 Build 0)  -->
<svg version="1.1" id="Layer_1" xmlns="http://www.w3.org/2000/svg" xmlns:xlink="http://www.w3.org/1999/xlink" x="0px" y="0px"
	 viewBox="0 0 411 137" style="enable-background:new 0 0 411 137;" xml:space="preserve">
<style type="text/css">
	.st0{fill:#C7B198;}
</style>
<path d="M141.8,51h17v10h-30V7.6h13V51z M171.6,14.2c-2.3,0-4.2-0.7-5.6-2c-1.4-1.4-2.1-3-2.1-5c0-2,0.7-3.7,2.1-5
	c1.5-1.4,3.3-2.1,5.6-2.1c2.2,0,4.1,0.7,5.5,2.1c1.5,1.3,2.2,3,2.2,5c0,2-0.7,3.6-2.2,5C175.6,13.5,173.8,14.2,171.6,14.2z
	 M178,18.6V61h-13V18.6H178z M200.4,24.6c1.2-2,3-3.6,5.2-4.8c2.3-1.2,4.9-1.8,7.8-1.8c3.5,0,6.7,0.9,9.5,2.7
	c2.8,1.8,5.1,4.3,6.7,7.6c1.7,3.3,2.5,7.1,2.5,11.5s-0.8,8.2-2.5,11.6c-1.6,3.3-3.9,5.9-6.7,7.7c-2.8,1.8-6,2.7-9.5,2.7
	c-3,0-5.6-0.6-7.8-1.7c-2.2-1.2-4-2.8-5.2-4.8V61h-13V4.8h13V24.6z M219,39.7c0-3.2-0.9-5.8-2.7-7.6c-1.8-1.9-4-2.8-6.6-2.8
	c-2.6,0-4.8,0.9-6.6,2.8c-1.8,1.9-2.7,4.4-2.7,7.7c0,3.2,0.9,5.8,2.7,7.7c1.8,1.9,4,2.8,6.6,2.8s4.8-0.9,6.6-2.8
	C218.1,45.5,219,43,219,39.7z M252,25.7c1.5-2.3,3.4-4.2,5.7-5.5c2.3-1.4,4.8-2.1,7.6-2.1v13.8h-3.6c-3.2,0-5.7,0.7-7.3,2.1
	c-1.6,1.4-2.4,3.8-2.4,7.3V61h-13V18.6h13V25.7z M268.9,39.7c0-4.4,0.8-8.2,2.4-11.5c1.7-3.3,3.9-5.8,6.8-7.6c2.8-1.8,6-2.7,9.5-2.7
	c3,0,5.6,0.6,7.8,1.8c2.3,1.2,4,2.8,5.2,4.8v-6h13V61h-13v-6c-1.3,2-3,3.6-5.3,4.8c-2.2,1.2-4.8,1.8-7.8,1.8c-3.4,0-6.6-0.9-9.4-2.7
	c-2.8-1.8-5.1-4.4-6.8-7.7C269.7,47.9,268.9,44.1,268.9,39.7z M300.7,39.8c0-3.2-0.9-5.8-2.7-7.7c-1.8-1.9-4-2.8-6.5-2.8
	s-4.8,0.9-6.6,2.8c-1.8,1.8-2.7,4.4-2.7,7.6c0,3.2,0.9,5.8,2.7,7.8c1.8,1.9,4,2.8,6.6,2.8s4.8-0.9,6.5-2.8
	C299.8,45.6,300.7,43,300.7,39.8z M336.1,25.7c1.5-2.3,3.4-4.2,5.7-5.5c2.3-1.4,4.8-2.1,7.6-2.1v13.8h-3.6c-3.2,0-5.7,0.7-7.3,2.1
	c-1.6,1.4-2.4,3.8-2.4,7.3V61h-13V18.6h13V25.7z M398.9,18.6l-26.6,62.5h-14l9.7-21.6l-17.3-41h14.5l9.8,26.5l9.7-26.5H398.9z"/>
<path d="M143.7,90v2.3h-12.3v10.4h10.4v2.3h-10.4V118h-2.8V90H143.7z M157.9,118.3c-2.1,0-3.9-0.5-5.6-1.4c-1.6-0.9-2.9-2.2-3.9-3.9
	c-0.9-1.7-1.4-3.7-1.4-6s0.5-4.2,1.4-5.9c1-1.7,2.3-3,3.9-3.9c1.7-0.9,3.5-1.4,5.6-1.4c2.1,0,3.9,0.5,5.6,1.4c1.7,0.9,3,2.2,3.9,3.9
	c1,1.7,1.4,3.7,1.4,5.9c0,2.2-0.5,4.2-1.4,5.9c-1,1.7-2.3,3-4,4C161.8,117.9,159.9,118.3,157.9,118.3z M157.9,115.9
	c1.4,0,2.8-0.3,4-1c1.2-0.7,2.2-1.7,3-3c0.8-1.3,1.2-3,1.2-4.9s-0.4-3.5-1.1-4.8c-0.7-1.3-1.7-2.3-3-3c-1.2-0.7-2.6-1-4-1
	c-1.4,0-2.8,0.3-4,1c-1.2,0.6-2.2,1.6-3,3c-0.7,1.3-1.1,2.9-1.1,4.8s0.4,3.5,1.1,4.9c0.7,1.3,1.7,2.3,2.9,3
	C155.1,115.6,156.4,115.9,157.9,115.9z M192.9,96.2V118h-2.8v-3.8c-0.6,1.4-1.6,2.4-3,3.1c-1.3,0.7-2.8,1.1-4.5,1.1
	c-2.6,0-4.7-0.8-6.4-2.4c-1.7-1.6-2.5-4-2.5-7V96.2h2.8v12.4c0,2.4,0.6,4.2,1.8,5.4c1.2,1.3,2.8,1.9,4.9,1.9c2.1,0,3.8-0.7,5-2
	c1.3-1.3,1.9-3.3,1.9-5.9V96.2H192.9z M209.5,95.8c2.6,0,4.7,0.8,6.4,2.4c1.7,1.6,2.5,3.9,2.5,7V118h-2.8v-12.5
	c0-2.4-0.6-4.2-1.8-5.4c-1.2-1.3-2.8-1.9-4.8-1.9c-2.1,0-3.8,0.7-5,2c-1.3,1.3-1.9,3.3-1.9,5.9V118h-2.8V96.2h2.8v3.7
	c0.7-1.3,1.7-2.3,3-3C206.4,96.1,207.9,95.8,209.5,95.8z M223.3,107c0-2.2,0.5-4.2,1.4-5.9c0.9-1.7,2.1-3,3.7-3.9
	c1.6-0.9,3.4-1.4,5.4-1.4c1.9,0,3.7,0.5,5.2,1.4c1.5,0.9,2.7,2.1,3.4,3.6V88.4h2.8V118h-2.8v-4.9c-0.7,1.5-1.8,2.8-3.3,3.8
	c-1.5,1-3.3,1.4-5.4,1.4c-2,0-3.8-0.5-5.4-1.4c-1.6-0.9-2.8-2.3-3.7-4C223.8,111.3,223.3,109.3,223.3,107z M242.4,107.1
	c0-1.8-0.4-3.3-1.1-4.6s-1.7-2.4-3-3.1c-1.2-0.7-2.6-1.1-4.1-1.1c-1.5,0-2.9,0.3-4.2,1c-1.2,0.7-2.2,1.7-2.9,3c-0.7,1.3-1,2.9-1,4.7
	c0,1.8,0.3,3.4,1,4.7c0.7,1.3,1.7,2.4,2.9,3.1c1.2,0.7,2.6,1,4.2,1c1.5,0,2.9-0.4,4.1-1.1c1.3-0.7,2.2-1.7,3-3.1
	S242.4,108.8,242.4,107.1z M271.4,106c0,1,0,1.7-0.1,2.2h-18.1c0.1,1.7,0.5,3.1,1.2,4.2c0.7,1.2,1.7,2.1,2.8,2.7
	c1.2,0.6,2.5,0.9,3.8,0.9c1.8,0,3.3-0.4,4.6-1.3c1.3-0.9,2.1-2.1,2.5-3.6h3c-0.5,2.1-1.7,3.9-3.4,5.2c-1.7,1.3-3.9,2-6.6,2
	c-2.1,0-3.9-0.5-5.5-1.4c-1.6-0.9-2.9-2.2-3.8-3.9c-0.9-1.7-1.4-3.7-1.4-6s0.5-4.3,1.4-6c0.9-1.7,2.2-3,3.8-3.9
	c1.6-0.9,3.5-1.4,5.6-1.4c2.1,0,3.9,0.5,5.4,1.4c1.6,0.9,2.8,2.1,3.6,3.7C270.9,102.4,271.4,104.1,271.4,106z M268.5,105.9
	c0-1.6-0.3-3-1-4.2c-0.7-1.1-1.6-2-2.8-2.6c-1.2-0.6-2.5-0.9-3.8-0.9c-2.1,0-3.9,0.7-5.3,2c-1.5,1.3-2.3,3.2-2.4,5.6H268.5z
	 M275.2,107c0-2.2,0.5-4.2,1.4-5.9c0.9-1.7,2.1-3,3.7-3.9c1.6-0.9,3.4-1.4,5.4-1.4c1.9,0,3.7,0.5,5.2,1.4c1.5,0.9,2.7,2.1,3.4,3.6
	V88.4h2.8V118h-2.8v-4.9c-0.7,1.5-1.8,2.8-3.3,3.8c-1.5,1-3.3,1.4-5.4,1.4c-2,0-3.8-0.5-5.4-1.4c-1.6-0.9-2.8-2.3-3.7-4
	C275.6,111.3,275.2,109.3,275.2,107z M294.3,107.1c0-1.8-0.4-3.3-1.1-4.6s-1.7-2.4-3-3.1c-1.2-0.7-2.6-1.1-4.1-1.1
	c-1.5,0-2.9,0.3-4.2,1c-1.2,0.7-2.2,1.7-2.9,3c-0.7,1.3-1,2.9-1,4.7c0,1.8,0.3,3.4,1,4.7c0.7,1.3,1.7,2.4,2.9,3.1
	c1.2,0.7,2.6,1,4.2,1c1.5,0,2.9-0.4,4.1-1.1c1.3-0.7,2.2-1.7,3-3.1S294.3,108.8,294.3,107.1z M312.5,91.8v-2.5h6.8V118h-2.8V91.8
	H312.5z M329.2,110.4c0.3,1.7,1,3.1,2,4s2.5,1.4,4.3,1.4c2.5,0,4.4-1,5.6-2.9c1.2-2,1.8-5.2,1.7-9.8c-0.5,1.5-1.5,2.6-2.9,3.5
	c-1.4,0.8-3,1.2-4.9,1.2c-2.8,0-5.1-0.8-6.8-2.5c-1.7-1.7-2.5-4-2.5-7c0-1.8,0.3-3.4,1-4.8c0.7-1.4,1.7-2.6,3.2-3.4
	c1.4-0.8,3.1-1.2,5.2-1.2c3.8,0,6.4,1.2,7.9,3.7c1.5,2.5,2.2,6,2.2,10.6c0,5-0.7,8.7-2.2,11.2c-1.5,2.5-4,3.8-7.6,3.8
	c-2.6,0-4.7-0.7-6.2-2.1c-1.5-1.4-2.3-3.3-2.6-5.6H329.2z M335.4,105.4c1.3,0,2.4-0.3,3.4-0.8c1.1-0.5,1.9-1.3,2.6-2.3
	c0.6-1,1-2.2,1-3.6c0-2.2-0.6-4-1.9-5.4c-1.2-1.4-3-2.1-5.3-2.1c-2.1,0-3.7,0.6-5,1.9c-1.2,1.3-1.8,3-1.8,5.1c0,2.2,0.6,4,1.8,5.3
	C331.4,104.8,333.2,105.4,335.4,105.4z M354.2,110.4c0.3,1.7,1,3.1,2,4s2.5,1.4,4.3,1.4c2.5,0,4.4-1,5.6-2.9c1.2-2,1.8-5.2,1.7-9.8
	c-0.5,1.5-1.5,2.6-2.9,3.5c-1.4,0.8-3,1.2-4.9,1.2c-2.8,0-5.1-0.8-6.8-2.5c-1.7-1.7-2.5-4-2.5-7c0-1.8,0.3-3.4,1-4.8
	c0.7-1.4,1.7-2.6,3.2-3.4c1.4-0.8,3.1-1.2,5.2-1.2c3.8,0,6.4,1.2,7.9,3.7c1.5,2.5,2.2,6,2.2,10.6c0,5-0.7,8.7-2.2,11.2
	c-1.5,2.5-4,3.8-7.6,3.8c-2.6,0-4.7-0.7-6.2-2.1c-1.5-1.4-2.3-3.3-2.6-5.6H354.2z M360.4,105.4c1.3,0,2.4-0.3,3.4-0.8
	c1.1-0.5,1.9-1.3,2.6-2.3c0.6-1,1-2.2,1-3.6c0-2.2-0.6-4-1.9-5.4c-1.2-1.4-3-2.1-5.3-2.1c-2.1,0-3.7,0.6-5,1.9
	c-1.2,1.3-1.8,3-1.8,5.1c0,2.2,0.6,4,1.8,5.3C356.4,104.8,358.2,105.4,360.4,105.4z M393.6,91.7H379V102c0.7-0.9,1.6-1.7,2.9-2.3
	c1.3-0.6,2.7-0.9,4.2-0.9c2.2,0,4,0.5,5.4,1.4c1.4,0.9,2.4,2,3,3.5c0.6,1.4,0.9,2.9,0.9,4.6c0,1.9-0.4,3.6-1.1,5.1
	c-0.7,1.5-1.8,2.7-3.2,3.6c-1.4,0.9-3.2,1.3-5.4,1.3c-2.7,0-5-0.7-6.7-2.1c-1.7-1.4-2.7-3.4-3.1-5.8h2.8c0.3,1.8,1.1,3.1,2.4,4.1
	c1.3,1,2.8,1.4,4.6,1.4c2.3,0,4.1-0.7,5.2-2c1.2-1.4,1.8-3.2,1.8-5.5c0-2.2-0.6-3.9-1.8-5.2c-1.2-1.3-2.9-1.9-5.2-1.9
	c-1.5,0-2.9,0.4-4.1,1.1c-1.2,0.7-2,1.7-2.6,2.9h-2.6V89.3h17.2V91.7z"/>
<path class="st0" d="M2.5,49.5c0,0.1,0,0.1-0.1,0.2C2.5,49.6,2.5,49.5,2.5,49.5z M2.5,49.4c0,0.1,0,0.6,0.2,1.2
	c0.3,1.2,1.2,2.3,2.3,3l44.4,27c-0.1-0.4-0.1-0.9-0.1-1.3c0-4.4,1.9-7.4,6.3-10.1l42.3-25.8c0.6-0.3,0.6-0.9,0.6-1.1
	s-0.1-0.8-0.6-1.1L52.9,13.8L7.6,41.5c-3.7,2.2-5.1,4.4-5.1,7.8C2.5,49.3,2.5,49.3,2.5,49.4z M55.1,86.3c-0.9,0-1.8-0.2-2.7-0.8
	c-0.2-0.1-0.3-0.2-0.5-0.3L3.7,55.8c-1.7-1-2.9-2.7-3.4-4.6C0,50.3,0,49.7,0,49.2c0-4.3,1.9-7.3,6.3-10l46-28c0.4-0.2,0.9-0.2,1.2,0
	l45.5,27.7c1.2,0.7,1.9,2,1.9,3.4s-0.7,2.7-1.9,3.4L56.8,71.5c-3.7,2.2-5.1,4.4-5.1,7.8c0,1.6,0.6,3,1.6,3.8c0,0,0,0,0.1,0.1
	c0.1,0.1,0.2,0.1,0.3,0.2c1,0.6,2.2,0.5,3.4-0.2l42.8-26l-3.5-2.4c-0.6-0.4-0.7-1.2-0.4-1.8c0.4-0.6,1.1-0.8,1.7-0.4l5.2,3.6
	c0.4,0.2,0.6,0.7,0.6,1.1c0,0.5-0.2,0.9-0.6,1.1L58.3,85.3C57.2,85.9,56.1,86.3,55.1,86.3z"/>
<path class="st0" d="M75.9,102.8c-0.4,0-0.8-0.2-1.1-0.7c-0.3-0.6-0.1-1.4,0.5-1.8l24.5-15L96.3,83c-0.6-0.4-0.7-1.2-0.4-1.8
	c0.4-0.6,1.1-0.8,1.7-0.4l5.2,3.6c0.4,0.2,0.6,0.7,0.6,1.1c0,0.5-0.2,0.9-0.6,1.1l-26.3,16C76.3,102.8,76.1,102.8,75.9,102.8z"/>
<path class="st0" d="M2.5,77.9c0,0.1,0,0.1-0.1,0.2C2.5,78.1,2.5,78,2.5,77.9z M52.6,113.8c-0.2,0-0.4-0.1-0.6-0.2L3.7,84.3
	c-1.7-1-2.9-2.7-3.4-4.6C0,78.8,0,78.1,0,77.7c0-4.3,1.9-7.3,6.3-10l2.1-1.4c0.6-0.4,1.4-0.2,1.7,0.4c0.4,0.6,0.2,1.4-0.4,1.8
	l-2.1,1.5c0,0,0,0-0.1,0c-3.7,2.2-5.1,4.4-5.1,7.8c0,0,0,0.1,0,0.1c0,0.1,0,0.6,0.2,1.2C3,80.2,3.8,81.3,5,82l48.3,29.4
	c0.6,0.4,0.8,1.2,0.4,1.8C53.5,113.6,53.1,113.8,52.6,113.8z"/>
<path class="st0" d="M67.4,118.1c-0.2,0-0.4-0.1-0.6-0.2c-0.4-0.2-0.6-0.7-0.6-1.1V109l-7.8,4.7c-2,1.2-4.1,1.3-5.9,0.2
	c-1.9-1.2-3.2-3.6-3.2-6.3c0-4.4,1.9-7.4,6.3-10.1l42.3-25.8c0.6-0.3,0.6-0.9,0.6-1.1c0-0.2-0.1-0.8-0.6-1.1
	c-0.6-0.4-0.8-1.2-0.5-1.8c0.3-0.6,1.1-0.8,1.7-0.5c1.2,0.7,1.9,2,1.9,3.4c0,1.4-0.7,2.7-1.9,3.4L56.8,99.9
	c-3.7,2.2-5.1,4.4-5.1,7.8c0,1.7,0.7,3.3,1.9,4c1,0.6,2.2,0.5,3.4-0.2l9.7-5.8c0.4-0.2,0.9-0.2,1.2,0c0.4,0.2,0.6,0.7,0.6,1.1v7.8
	l6-3.8v-9.2c0-1.8-0.9-3.5-2.4-4.4c-0.6-0.4-0.8-1.2-0.5-1.8c0.3-0.6,1.1-0.8,1.7-0.5c2.3,1.4,3.7,3.9,3.7,6.7v10
	c0,0.5-0.2,0.9-0.6,1.1L68,118C67.8,118.1,67.6,118.1,67.4,118.1z"/>
<path class="st0" d="M45.2,64c-0.2,0-0.4-0.1-0.6-0.2L6.3,41.5c-0.6-0.4-0.8-1.2-0.5-1.8c0.3-0.6,1.1-0.9,1.7-0.5l38.2,22.4
	c0.6,0.4,0.8,1.2,0.5,1.8C46,63.8,45.6,64,45.2,64z"/>
</svg>
